<svg id="Layer_1" data-name="Layer 1" xmlns="http://www.w3.org/2000/svg" width="10.31cm" height="0.95cm" viewBox="0 0 292.25 26.89"><defs><style>.cls-1{fill:#c63628;}</style></defs><path class="cls-1" d="M101.77,97.94h3.81v4.64h4.17v3.06h-4.17v9.86c0,2,.76,2.59,2.85,2.59.53,0,1.23,0,1.53-.07v3a21.29,21.29,0,0,1-2.5.16c-4.52,0-5.75-1.62-5.75-5.34V105.64H98.88v-3.06h2.89Z" transform="translate(-98.88 -94.48)"/><path class="cls-1" d="M116.64,102.46h3.89v2.9h.21a4.77,4.77,0,0,1,4.87-3.16,7.09,7.09,0,0,1,1.32.1v3.45a8,8,0,0,0-1.67-.14c-3.13,0-4.66,1.86-4.66,4.37V121h-4Z" transform="translate(-98.88 -94.48)"/><path class="cls-1" d="M131.65,115.64c0-3.28,2.28-5.5,6.57-5.5h4.69V108.4c0-2.13-1.35-3.13-3.49-3.13s-3.06.88-3.36,2.11h-3.71c.23-3.11,2.57-5.2,7.19-5.2,4,0,7.26,1.65,7.26,6.27V121h-3.71v-2.41h-.18a5.61,5.61,0,0,1-5.18,2.69C134.12,121.32,131.65,119.11,131.65,115.64Zm11.26-.88v-2h-4.07c-2.27,0-3.27,1.14-3.27,2.69,0,1.93,1.61,2.85,3.37,2.85A3.71,3.71,0,0,0,142.91,114.76Z" transform="translate(-98.88 -94.48)"/><path class="cls-1" d="M153.48,110.35c0-5,3.1-8.21,8-8.21,4.75,0,7.31,2.92,7.4,6.08h-3.69a3.29,3.29,0,0,0-3.62-2.83c-2.73,0-4.19,2-4.19,5V113c0,3.13,1.57,5.08,4.21,5.08,2.47,0,3.44-1.18,3.7-2.65H169c-.11,3.14-2.52,5.89-7.51,5.89s-8-3.19-8-8.32Z" transform="translate(-98.88 -94.48)"/><path class="cls-1" d="M179.45,121h-3.88V95.78h3.88v14.73h.18l6.84-8.05h4.45l-7,8.05L191.39,121h-4.61L181,112.79l-1.52,1.6Z" transform="translate(-98.88 -94.48)"/><path class="cls-1" d="M195.39,115.64c0-3.28,2.28-5.5,6.57-5.5h4.69V108.4c0-2.13-1.35-3.13-3.49-3.13s-3.06.88-3.36,2.11h-3.71c.23-3.11,2.57-5.2,7.19-5.2,4,0,7.26,1.65,7.26,6.27V121h-3.71v-2.41h-.18a5.61,5.61,0,0,1-5.18,2.69C197.87,121.32,195.39,119.11,195.39,115.64Zm11.26-.88v-2h-4.07c-2.27,0-3.27,1.14-3.27,2.69,0,1.93,1.61,2.85,3.37,2.85A3.71,3.71,0,0,0,206.65,114.76Z" transform="translate(-98.88 -94.48)"/><path class="cls-1" d="M218.1,102.46h3.84v3.34h.19c.47-1.46,1.83-3.62,5.59-3.62s6.26,2.07,6.26,6.31V121h-3.9V109.63c0-2.83-1.48-4.13-3.68-4.13-2.88,0-4.39,2.21-4.39,5.22V121H218.1Z" transform="translate(-98.88 -94.48)"/><path class="cls-1" d="M253.14,105.25h.2V95.78h3.9V121h-3.8v-3h-.19c-.56,1.88-2.79,3.22-5.5,3.22-4.27,0-7.05-3.05-7.05-8v-3.18c0-4.91,2.83-8,7.1-8C250.42,102.21,252.42,103.37,253.14,105.25Zm-8.47,5.47v2c0,3.39,1.64,5.33,4.31,5.33s4.36-1.92,4.36-5.08v-2.82c0-2.86-1.88-4.78-4.45-4.78S244.67,107.35,244.67,110.72Z" transform="translate(-98.88 -94.48)"/><path class="cls-1" d="M266.6,105.64h-3.08v-3.06h3.08v-1.84c0-3.62,1.74-5.24,6.1-5.24.88,0,1.9.09,2.35.14v2.92c-.29,0-1.19-.07-1.68-.07-2.06,0-2.94.59-2.94,2.56v1.53h4.24v3.06h-4.19V121H266.6Z" transform="translate(-98.88 -94.48)"/><path class="cls-1" d="M283.53,94.48a2.38,2.38,0,1,1,0,4.74,2.38,2.38,0,1,1,0-4.74Zm-1.91,8h3.88V121h-3.88Z" transform="translate(-98.88 -94.48)"/><path class="cls-1" d="M292.7,113v-2.52c0-5.27,3.44-8.35,8-8.35s7.95,3.24,7.95,8.35v2.18H296.57v.92c0,2.67,1.58,4.64,4.32,4.64,2,0,3.45-1,3.71-2.13h3.81c-.22,2.14-2.49,5.26-7.5,5.26S292.7,118.24,292.7,113Zm12.11-2.89v-.24c0-2.8-1.63-4.66-4.11-4.66s-4.13,1.86-4.13,4.66v.24Z" transform="translate(-98.88 -94.48)"/><path class="cls-1" d="M315.47,95.78h3.9V121h-3.9Z" transform="translate(-98.88 -94.48)"/><path class="cls-1" d="M338.75,105.25h.19V95.78h3.91V121h-3.8v-3h-.19c-.57,1.88-2.8,3.22-5.51,3.22-4.27,0-7.05-3.05-7.05-8v-3.18c0-4.91,2.84-8,7.11-8C336,102.21,338,103.37,338.75,105.25Zm-8.47,5.47v2c0,3.39,1.63,5.33,4.3,5.33s4.36-1.92,4.36-5.08v-2.82c0-2.86-1.88-4.78-4.44-4.78S330.28,107.35,330.28,110.72Z" transform="translate(-98.88 -94.48)"/><path class="cls-1" d="M353,115.87a2.72,2.72,0,0,1,2.83,2.78,2.81,2.81,0,1,1-2.83-2.78Z" transform="translate(-98.88 -94.48)"/><path class="cls-1" d="M365.45,94.48a2.38,2.38,0,1,1,0,4.74,2.38,2.38,0,1,1,0-4.74Zm-1.92,8h3.89V121h-3.89Z" transform="translate(-98.88 -94.48)"/><path class="cls-1" d="M391.14,110.51v2.41c0,5.39-3.4,8.44-8.25,8.44s-8.28-3-8.28-8.42v-2.41c0-5.08,3.41-8.39,8.28-8.39S391.14,105.29,391.14,110.51Zm-12.59.21v2.07c0,3.12,1.48,5.42,4.36,5.42s4.31-2.29,4.31-5.42v-2.07c0-3.11-1.53-5.43-4.31-5.43S378.55,107.61,378.55,110.72Z" transform="translate(-98.88 -94.48)"/></svg>