<?xml version="1.0" encoding="utf-8"?>
<!DOCTYPE svg PUBLIC "-//W3C//DTD SVG 1.1//EN" "http://www.w3.org/Graphics/SVG/1.1/DTD/svg11.dtd">
<svg version="1.1" id="_x30_" xmlns="http://www.w3.org/2000/svg" xmlns:xlink="http://www.w3.org/1999/xlink" x="0px" y="0px" width="892px" height="841.89px" viewBox="0 0 892 841.89" enable-background="new 0 0 892 841.89" xml:space="preserve">
	<g id="HATCH">
		<path fill-rule="evenodd" clip-rule="evenodd" fill="#C63527" d="M537.199,450.202v-29.666V388.99h-71.03v61.211H537.199
		L537.199,450.202z M425.299,450.202V388.99h-71.217v61.211H425.299L425.299,450.202z M354.072,280.108
		c-0.29-14.533,2.667-28.962,8.662-42.213l-30.688-22.657c-10.688,20.28-16.021,42.958-15.504,65.883v174v105.657
		c-0.899,39.443,15.525,77.294,44.942,103.568c20.931,17.014,46.824,26.751,73.78,27.743h10.377h10.378
		c21.458-0.785,42.348-7.132,60.622-18.398v-49.966c-3.142,4.031-6.584,7.814-10.315,11.308
		c-14.698,12.032-32.932,18.896-51.909,19.535h-8.775h-8.775c-18.977-0.64-37.221-7.503-51.909-19.535
		c-20.218-18.936-31.443-45.562-30.884-73.242V280.108L354.072,280.108z M258.452,455.122v106.216
		c-1.251,57.799,23.163,113.16,66.658,151.239c33.955,27.825,76.643,42.73,120.531,42.131c24.29,0.33,48.405-4.094,71-13.024
		v-44.466c-18.729,9.446-39.299,14.719-60.26,15.422h-10.74h-10.739c-31.722-1.075-62.204-12.549-86.752-32.663
		c-34.058-30.223-53.118-73.883-52.157-119.425V386.757V281.349c-0.258-12.465,0.972-24.931,3.69-37.107l-36.084-12.652
		c-3.773,16.042-5.499,32.498-5.147,48.973V455.122L258.452,455.122z M200.362,561.295c-1.282,75.165,30.885,147.002,87.806,196.119
		c44.405,36.426,100.23,56.044,157.669,55.383c23.96,0.247,47.805-3.039,70.804-9.758v-39.422
		c-22.802,7.999-46.833,11.948-71,11.638c-48.756,0.621-96.147-16.042-133.813-46.988c-48.167-42.027-75.238-103.238-73.925-167.138
		V386.757V280.77c-0.083-3.969-0.052-7.959,0.083-11.928l-37.366-4.9c-0.269,5.5-0.352,10.998-0.269,16.497L200.362,561.295
		L200.362,561.295z M653.378,692.958v6.058c22.172-35.785,35.082-76.551,37.542-118.578l0.01-299.999
		c1.221-75.103-30.946-146.878-87.816-195.954c-44.353-36.384-100.106-56.002-157.473-55.403
		c-57.366-0.599-113.12,19.019-157.473,55.403c-47.102,40.621-77.594,97.16-85.698,158.847l37.231,4.878
		c6.843-52.136,32.498-99.993,72.127-134.578c37.665-30.967,85.057-47.609,133.813-46.989c48.757-0.62,96.148,16.021,133.813,46.989
		c48.167,42.027,75.237,103.238,73.924,167.137v174.352V692.958L653.378,692.958z M595.289,759.834v4.03
		c2.78-2.088,5.529-4.238,8.228-6.45c10.574-9.137,20.383-19.121,29.313-29.871V420.536V280.563
		c1.251-57.8-23.163-113.182-66.658-151.24c-33.955-27.825-76.644-42.751-120.531-42.131c-43.888-0.62-86.576,14.306-120.531,42.131
		c-25.344,22.182-44.518,50.523-55.671,82.297l36.115,12.672c8.848-23.98,23.484-45.417,42.596-62.39
		c24.548-20.094,55.041-31.567,86.752-32.642h10.739h10.74c31.711,1.075,62.192,12.548,86.752,32.642
		c34.058,30.244,53.117,73.904,52.156,119.446v173.773V759.834L595.289,759.834z M537.188,796.197
		c13.014-5.064,25.583-11.246,37.552-18.46V420.536V281.121c0.899-39.443-15.525-77.294-44.941-103.569
		c-20.932-17.035-46.823-26.771-73.78-27.743h-10.378h-10.377c-26.957,0.972-52.849,10.708-73.78,27.743
		c-6.883,6.16-13.127,13.002-18.615,20.424l30.171,22.285c3.556-4.816,7.545-9.302,11.917-13.417
		c14.688-12.031,32.932-18.895,51.909-19.535h8.775h8.775c18.978,0.641,37.211,7.504,51.909,19.535
		c20.217,18.936,31.443,45.562,30.884,73.264l-0.01,175.013L537.188,796.197L537.188,796.197z" />
	</g>
</svg>
